PathFileType	4	(X/Y/Z)	Patient5_TMGait_0pt45_1_right_09.trc.trc
DataRate	CameraRate	NumFrames	NumMarkers	Units	OrigDataRate	OrigDataStartFrame	OrigNumFrames
58.091286307054	58.091286307054	7	32	mm	58.091286307054	53	       141
Frame#	Time	R.ASIS			L.ASIS			Chest			R.Shoulder			Neck			L.Shoulder			L.Elbow			L.Wrist			R.Elbow			R.Wrist			L.Thigh.Superior			L.Thigh.Lateral			L.Thigh.Inferior			L.Patella			L.Shank.Superior			L.Shank.Lateral			L.Shank.Inferior			L.Heel			L.Midfoot.Lateral			L.Midfoot.Superior			L.Toe			R.Thigh.Superior			R.Thigh.Lateral			R.Thigh.Inferior			R.Patella			R.Shank.Superior			R.Shank.Lateral			R.Shank.Inferior			R.Heel			R.Midfoot.Lateral			R.Midfoot.Superior			R.Toe			
		X1	Y1	Z1	X2	Y2	Z2	X3	Y3	Z3	X4	Y4	Z4	X5	Y5	Z5	X6	Y6	Z6	X7	Y7	Z7	X8	Y8	Z8	X9	Y9	Z9	X10	Y10	Z10	X11	Y11	Z11	X12	Y12	Z12	X13	Y13	Z13	X14	Y14	Z14	X15	Y15	Z15	X16	Y16	Z16	X17	Y17	Z17	X18	Y18	Z18	X19	Y19	Z19	X20	Y20	Z20	X21	Y21	Z21	X22	Y22	Z22	X23	Y23	Z23	X24	Y24	Z24	X25	Y25	Z25	X26	Y26	Z26	X27	Y27	Z27	X28	Y28	Z28	X29	Y29	Z29	X30	Y30	Z30	X31	Y31	Z31	X32	Y32	Z32	

53	15.485142857143	1041.061214722409	958.436047098531	627.116567127409	1016.745099638569	954.059689190420	386.475609567951	1129.674120483445	1416.415856441095	509.139520453872	1056.502352782152	1480.417143667228	687.716592663038	1006.311161055377	1545.226621786292	510.077865741733	1044.361670321480	1490.699265473360	322.800446792600	919.898346773187	1185.583165114504	204.641418706576	1003.597039209156	907.683938044234	196.931595721759	997.701136056648	1168.894892065824	849.554969078037	1206.057420070652	987.598122441924	760.883658732928	1091.915725464955	781.836482909933	363.503027912789	1059.130553988627	695.023816668068	311.995103518422	1153.382741687096	670.854289184935	372.729692516752	1209.278449582921	547.194795057923	360.582599063449	1168.596734616284	435.407349464626	383.000281016258	1094.329556950915	367.460377399285	311.091192789425	1138.958847221988	312.228501503978	392.294898964549	1013.863617835486	74.065308601401	398.435156831186	1096.722972541937	57.784917032167	328.135800562911	1195.028489557783	123.457355255215	361.159285845485	1301.169243536359	88.750481111168	352.398321771274	1015.348955946157	722.607479920236	636.664104219240	916.098620654261	659.235562702840	689.278887297593	980.544488353418	595.804969325644	609.735106459606	965.217553319247	502.810332332496	633.830327480332	913.012990945294	415.990035675284	594.687201915858	840.782231138182	351.187844763966	675.513540749008	887.714274326462	279.287807692032	589.501737292890	751.840660027015	54.461185075972	550.166379577883	830.778333290777	25.087924945439	622.527958212065	936.440087512329	86.882057162804	597.905009999972	1040.068506286519	44.495405752782	596.611792940610	
54	15.502357142857	1040.942393911151	957.227749220393	626.962485308289	1020.437592845023	952.135930578762	385.791601637394	1132.394981631994	1414.785201618008	507.868642796903	1057.836990883217	1479.565407304675	685.323470141335	1009.078602896098	1543.673303099017	507.371302470902	1049.016122393484	1488.563332790819	320.525203765604	926.301495925875	1182.908157247602	201.975560841624	1009.761017060302	904.875534508187	195.944656773225	998.407028976770	1168.106492783731	847.252680257716	1207.438109356328	986.989832598161	759.804466039383	1091.842197754045	776.564190011816	362.299807367612	1057.099877776501	689.561835577954	312.290184727014	1151.268069776200	664.814658976361	373.161902836266	1206.663434237581	545.290973499854	362.819257020200	1173.090727714234	433.485501270658	385.702975025016	1103.633799284410	360.246470985979	313.834085571982	1153.475812333492	308.015961095768	394.703892978518	1046.594149415878	62.069980922742	400.507577758027	1130.622534883307	49.838216821886	330.753257396538	1224.724355686245	121.501671417160	363.921143137054	1332.937344205012	93.141645533848	355.943249921570	1013.192348551255	721.494581037778	635.930141148579	912.878654608590	659.104164605171	688.240107879340	977.070597447846	594.996440355880	609.325126219101	960.808661060603	501.961190459178	633.487468686659	907.973909665590	415.623355154132	594.149203328913	834.524258183227	351.667018385114	674.694937098421	881.558901565531	279.098137132571	589.356920735935	744.037987760956	54.494004568682	550.154856094534	822.937822208476	25.081125555191	622.528474473766	928.580891985382	86.872599395437	598.059232526657	1032.159170354703	44.475705295996	596.677305112381	
55	15.519571428571	1041.247844805486	956.139433766832	626.639268162047	1024.949780202821	950.140265342673	385.063915851516	1135.023363469247	1413.284083997170	506.356502725045	1058.746588810745	1478.670761785359	682.530322362311	1011.685043095512	1542.078820426347	504.255578763157	1053.722055397534	1486.507402250859	317.929366394491	932.988804888974	1180.241120639680	198.870491447770	1016.528395121940	902.178709750195	194.819788860216	998.725652775501	1167.192595058872	844.527448281140	1208.504744517992	986.140167980353	758.701197676103	1092.793361968465	770.804838563804	361.034711729397	1055.613155444857	683.523591529703	312.992040983034	1149.674664174309	658.093091097173	374.076445740642	1203.802354673744	542.328513297298	366.282393172784	1176.151911593664	430.753053311869	389.293552531277	1111.366293930367	353.441225526714	317.136547734621	1165.062335824464	303.887421382231	397.851379288650	1073.485400699864	53.303709601526	402.233310117803	1158.740479619151	43.660477183800	333.616026387017	1249.191806039036	119.499469341010	367.841429546634	1358.785220041731	95.826004558571	361.357976049241	1011.643419339869	720.442646547604	635.162914318560	910.192590007363	659.004881641456	686.997472849928	974.270730755101	594.190204037628	608.841253869376	956.962861198439	501.057289312256	633.082579797062	903.461977052011	415.160146768831	593.520879895129	828.611943098461	352.215563360999	673.713108644331	875.725940688400	278.852971850836	589.170158627615	736.238984184655	54.540077308361	550.148265711571	815.116837415796	25.055380812479	622.511353668743	920.752493265091	86.893232238719	598.254658057619	1024.271522555045	44.443468243745	596.747256973264	
56	15.536785714286	1042.037276048760	955.270525777379	626.168477206877	1030.167700624491	948.208843011919	384.295525436252	1137.521808967522	1412.019759810158	504.640175796067	1059.146732938751	1477.862188743105	679.356677151237	1014.110946360710	1540.543840019593	500.708942109806	1058.475942550455	1484.571101554836	315.014393222659	939.940831124582	1177.625118281583	195.361047013070	1023.869297053952	899.650633732717	193.531006487508	998.636927293082	1166.246061942240	841.357479187790	1209.242615701463	985.162142122189	757.564406352115	1095.037160696293	765.083220207687	360.010267203048	1055.293326725683	677.510375692478	314.074514210629	1149.031127026380	651.324579927305	375.684335846247	1201.280897649721	538.689231464078	370.980198548493	1178.040170887604	427.395722240513	393.654604827402	1117.604031417524	347.341879462441	320.764515290966	1173.446661914927	299.834551491033	401.585401823819	1093.197390044675	47.647074081567	403.572248523728	1179.725910250658	38.978230521510	336.570963791992	1267.512826747783	116.920208537170	372.701219458227	1377.849426312992	95.839345008894	368.284384484583	1010.893484684651	719.515233227350	634.454608379872	908.259838815212	658.947989203771	685.542553982603	972.416781295563	593.389344183700	608.297195703735	953.937618225825	500.116197496755	632.622650963301	899.705465710062	414.581590974190	592.823511206950	823.272111181692	352.850115319631	672.579765235912	870.358240701573	278.563044666250	588.939389009347	728.470999940270	54.677347760865	550.168706883269	807.336615099878	25.041645558310	622.481202964797	912.994129154137	86.938595439647	598.494427336619	1016.426534412527	44.385281998903	596.827594774052	
57	15.554000000000	1043.328487248243	954.712873989500	625.540384630241	1035.944848353279	946.515899404632	383.447093513918	1139.877462243903	1411.116570808870	502.747999850284	1058.998490777640	1477.286899064497	675.844936920291	1016.372357429139	1539.197955585525	496.737089365073	1063.268646584837	1482.833483286928	311.796460709846	947.186861287626	1175.129830829907	191.501106650407	1031.751502917449	897.351355858259	192.055771016293	998.103517359250	1165.383022580571	837.709954687584	1209.629014890571	984.210759785162	756.372808120201	1098.722475136732	759.983092552895	359.538736412488	1056.693348270873	672.190265400765	315.439202927708	1149.687301017655	645.178022251768	378.082632196535	1199.625912549638	534.822140260562	376.685864996691	1179.089788555043	423.715990302974	398.494729033552	1122.603102079495	342.235219079814	324.325550423034	1178.670788002045	295.933585082497	405.588053074234	1105.224448448349	44.713098806363	404.463289529322	1193.025588942078	35.457025443938	339.400731733771	1279.394008663448	113.442639702488	378.075236765431	1389.910109238702	92.698631021155	376.115358879258	1011.024947823585	718.784621303038	633.847245202091	907.215318919926	658.965548218638	683.880176594792	971.640668392045	592.632534390933	607.680128215878	951.888035786306	499.192467394503	632.099440859149	896.827084325005	413.912438477928	592.081081376288	818.665388784731	353.611382520752	671.329389380856	865.535797953122	278.277179570620	588.665033356391	720.767047645473	55.030335404636	550.243628969325	799.615786287910	25.095313541141	622.448516092327	905.352437518598	87.006170134372	598.787187832452	1008.637897545266	44.287261932626	596.920406199265	
58	15.571214285714	1045.087403162432	954.541454579562	624.707397089205	1042.116131387339	945.245084039813	382.446587175746	1142.115395078410	1410.693486371945	500.693789270562	1058.347106836494	1477.087441799128	672.058561219960	1018.525054960766	1538.186631304969	492.380363092782	1068.091463865338	1481.410020119147	308.310427205892	954.778606488068	1172.860361412274	187.359783573351	1040.148758545113	895.362341520637	190.380886007831	997.064341396276	1164.737063656249	833.549806975155	1209.626818705658	983.474133207680	755.102294721268	1103.824344911274	756.041249723186	359.833210455216	1060.142344084242	668.161413007225	316.921254552955	1151.829186300852	640.228395106019	381.186560667590	1199.191998363049	531.168968683007	382.943963055853	1179.656000437483	420.079806399837	403.381383494316	1126.710486512572	338.337694457013	327.360443290304	1181.097212428786	292.341432384232	409.437456798816	1110.026468035413	43.884663981860	404.869225292074	1199.022129997676	32.795909079414	341.861445427240	1285.226598675039	109.104132687511	383.384083621834	1395.470611916109	86.654692020983	384.028076116685	1011.995641650474	718.329542693108	633.312724273208	907.080604545041	659.120051059312	682.030241157236	971.925166768495	592.001671410159	606.962857345519	950.856848162467	498.378200675254	631.502485297378	894.841059988335	413.220761262317	591.318544446150	814.865780400919	354.562875466388	670.011781224463	861.279535345401	278.076535047247	588.353804911388	713.168037729144	55.766150665092	550.395689621447	791.969450885892	25.301653761727	622.428176231597	897.880912609822	87.098478323674	599.147642912268	1000.910358950515	44.139117050290	597.023612649202	
59	15.588428571429	1047.229669399054	954.808829412906	623.589774496132	1048.508165937839	944.546727360584	381.208611150007	1144.298841769759	1410.836481070495	498.480728934603	1057.336357194141	1477.377543211113	668.075401087270	1020.654853578487	1537.649169129985	487.713070943728	1072.949998291328	1480.432094209274	304.611082346748	962.756271461625	1170.951740998973	183.015070039011	1049.040990563119	893.794214188730	188.503583739233	995.442374738487	1164.446845614961	828.852664899962	1209.184577891090	983.149851862025	753.730553251454	1110.115681303106	753.611069411506	360.898994080952	1065.607926199881	665.796143912438	318.308857336134	1155.407798116515	636.824346319818	384.699310309225	1200.076425678202	528.078944642312	389.132087604780	1180.048420710183	416.833519891019	407.821589003926	1130.227422110216	335.727486976749	329.478080884074	1181.324929946371	289.248157725152	412.714618261856	1108.881128079355	44.430304355338	404.818066071482	1198.900817812995	30.789886846823	343.742146269813	1285.963482078684	104.296990322763	388.029434695220	1395.637133199479	78.654497980535	391.132662494918	1013.662097813760	718.231389160410	632.742929691486	907.772554639722	659.501297653253	680.024286319280	973.142950430257	591.614354478253	606.123638016577	950.802793906830	497.790287369795	630.835629280971	893.685518605632	412.604107669450	590.560206188819	811.869025189487	355.781076327129	668.680189612666	857.576822595756	278.059934519846	588.022088616234	705.725032420044	57.079273226343	550.632526159447	784.410114650015	25.774895586803	622.434418809357	890.639076134219	87.222294764098	599.591598674171	993.241263448858	43.938173932426	597.131557910840	
